<?xml version="1.0" standalone="no"?>
<!DOCTYPE svg PUBLIC "-//W3C//DTD SVG 20010904//EN"
 "http://www.w3.org/TR/2001/REC-SVG-20010904/DTD/svg10.dtd">
<svg version="1.0" xmlns="http://www.w3.org/2000/svg"
 width="700.000000pt" height="700.000000pt" viewBox="0 0 700.000000 700.000000"
 preserveAspectRatio="xMidYMid meet">
<metadata>
Created by potrace 1.14, written by Peter Selinger 2001-2017
</metadata>
<g transform="translate(0.000000,700.000000) scale(0.100000,-0.100000)"
fill="#000000" stroke="none">
<path d="M2833 6736 c-288 -145 -526 -265 -529 -268 -3 -3 4 -24 15 -47 12
-22 21 -43 21 -46 0 -3 -22 -5 -50 -5 -33 0 -50 -4 -51 -12 -1 -7 -2 -512 -3
-1122 l-1 -1109 -547 -274 -548 -274 26 -50 c23 -45 23 -50 7 -49 -10 1 -35 2
-55 1 l-37 -1 0 -1188 0 -1187 1107 -553 1107 -552 208 0 208 1 1104 551 1104
552 0 2343 0 2343 -55 0 -54 0 20 40 c11 21 20 45 20 52 0 7 -499 262 -1108
566 l-1107 553 -140 -2 -140 -1 -522 -262z m1116 -136 c242 -121 442 -224 445
-228 3 -5 -197 -110 -444 -233 l-449 -225 -446 223 c-245 122 -446 226 -447
230 -1 8 868 451 889 452 6 1 209 -98 452 -219z m1598 -802 c8 -7 -128 -80
-437 -234 -246 -123 -451 -224 -454 -224 -6 0 -752 371 -876 435 l-33 17 454
227 454 228 440 -220 c242 -121 445 -224 452 -229z m-2618 157 l461 -230 0
-1032 0 -1033 -207 104 c-115 57 -325 162 -468 233 l-260 131 0 1031 c0 567 3
1030 7 1029 3 -2 214 -106 467 -233z m1150 -575 c254 -127 462 -234 462 -238
6 -33 2 -2052 -3 -2052 -5 0 -215 104 -468 230 l-460 230 0 1030 c0 567 2
1030 4 1030 3 0 212 -104 465 -230z m1621 -1955 l0 -2185 -1040 -520 c-572
-286 -1042 -520 -1045 -520 -3 0 -4 464 -3 1031 l3 1031 215 108 c463 232 829
415 849 425 26 12 26 19 0 62 -12 19 -18 37 -14 41 4 4 28 7 53 7 l47 0 0
1120 0 1120 460 232 c253 127 463 232 468 232 4 1 7 -982 7 -2184z m-2458 54
c-4 -4 -207 -107 -452 -229 l-444 -223 -455 228 -456 227 455 228 455 227 452
-226 c249 -124 449 -229 445 -232z m716 -347 l452 -227 -455 -228 -455 -227
-455 227 -455 228 452 227 c249 125 455 227 458 227 3 0 209 -102 458 -227z
m-2182 -65 l460 -232 0 -1028 c0 -565 -4 -1027 -8 -1027 -5 0 -215 104 -468
230 l-460 230 0 1030 c0 567 3 1030 8 1029 4 0 214 -104 468 -232z m1154 -577
l460 -230 0 -1030 c0 -567 -3 -1030 -7 -1029 -5 0 -215 104 -468 232 l-460
232 0 1028 c0 565 3 1027 7 1027 5 0 215 -104 468 -230z"/>
</g>
</svg>
